<?xml version="1.0" standalone="no"?>
<!DOCTYPE svg PUBLIC "-//W3C//DTD SVG 20010904//EN"
 "http://www.w3.org/TR/2001/REC-SVG-20010904/DTD/svg10.dtd">
<svg version="1.0" xmlns="http://www.w3.org/2000/svg"
 width="980.000000pt" height="980.000000pt" viewBox="0 0 980.000000 980.000000"
 preserveAspectRatio="xMidYMid meet">
<metadata>
Created by potrace 1.11, written by Peter Selinger 2001-2013
</metadata>
<g transform="translate(0.000000,980.000000) scale(0.100000,-0.100000)"
fill="#000000" stroke="none">
<path d="M9174 9621 c-242 -117 -1241 -684 -1359 -772 -127 -93 -152 -166
-132 -374 l8 -80 -1028 -1027 -1028 -1028 -110 76 c-371 254 -834 360 -1257
288 -239 -40 -523 -152 -706 -276 -108 -73 -359 -327 -468 -473 -113 -151
-186 -269 -289 -465 l-81 -155 -195 -7 c-472 -17 -621 -37 -857 -113 -403
-131 -713 -323 -999 -618 -333 -344 -556 -786 -645 -1277 -26 -146 -36 -507
-18 -661 42 -369 177 -747 367 -1033 108 -162 251 -326 512 -586 433 -433 605
-562 967 -725 308 -138 510 -175 970 -175 446 0 656 46 1020 225 596 294 1027
785 1229 1400 89 271 115 443 122 801 l5 281 139 66 c163 77 316 166 424 247
190 143 450 403 624 628 216 278 400 608 401 719 0 55 -7 71 -41 88 -48 25
-73 18 -156 -43 -111 -82 -138 -97 -228 -127 -292 -99 -608 66 -732 381 -23
60 -27 84 -27 179 -1 100 1 115 26 165 16 33 77 110 150 190 67 74 658 672
1313 1329 l1192 1194 96 -13 c128 -18 180 -6 279 62 110 77 661 639 1002 1023
130 146 140 171 135 339 -4 97 -8 118 -32 168 -52 107 -160 175 -321 203 -141
24 -180 21 -272 -24z m290 -181 c37 -14 105 -79 127 -121 56 -112 21 -159
-582 -774 -304 -310 -446 -448 -492 -475 -46 -28 -95 -25 -148 9 -55 34 -323
284 -401 373 -64 73 -98 125 -98 151 0 42 69 87 590 384 450 256 710 395 825
439 63 24 137 30 179 14z m-1475 -1317 l123 -118 -129 -128 -128 -127 -125
125 -125 125 121 120 c66 66 125 120 130 120 6 0 65 -53 133 -117z m-408 -410
l120 -118 -128 -128 -128 -127 -125 125 -125 125 121 120 c66 66 126 120 133
120 6 0 66 -53 132 -117z m-409 -410 l118 -117 -115 -116 -115 -115 -125 125
-125 125 108 108 c60 59 115 107 122 107 7 0 67 -53 132 -117z m-317 -452 l50
-51 -128 -128 -127 -127 -125 125 -126 125 126 124 125 123 78 -70 c42 -39 99
-93 127 -121z m-450 -370 l90 -91 -128 -127 -127 -128 -125 125 -126 125 126
123 125 124 37 -30 c21 -17 78 -71 128 -121z m-1656 33 c58 -8 147 -29 196
-45 124 -41 398 -178 468 -235 l59 -47 -184 -186 c-100 -102 -302 -306 -447
-453 l-264 -267 -70 64 c-38 34 -84 71 -102 81 -33 18 -33 18 -72 -11 -116
-89 -363 -354 -363 -390 0 -30 178 -221 531 -570 320 -317 365 -352 419 -333
51 17 303 263 352 343 35 59 24 89 -74 191 l-49 50 110 107 c60 59 114 107
120 107 6 0 15 -17 20 -37 5 -21 17 -67 26 -103 62 -241 264 -458 505 -541 57
-20 91 -23 282 -27 l218 -4 -76 -112 c-249 -363 -522 -643 -816 -836 -82 -55
-160 -95 -400 -209 -60 -28 -114 -61 -122 -74 -12 -17 -18 -82 -26 -272 -24
-567 -33 -645 -99 -842 -186 -550 -575 -1010 -1091 -1290 -164 -89 -440 -192
-590 -219 -105 -19 -714 -19 -822 0 -117 21 -368 110 -516 183 -158 78 -362
211 -487 317 -119 102 -428 409 -569 566 -222 247 -310 373 -417 595 -281 588
-275 1272 17 1857 318 638 935 1104 1603 1214 85 14 269 27 630 44 125 6 209
14 217 21 8 6 57 96 108 199 109 216 179 333 285 475 91 121 277 310 384 389
342 254 721 357 1106 300z m1236 -433 l100 -101 -125 -124 -125 -124 -119 113
-119 113 22 29 c12 15 65 74 117 131 l96 102 26 -19 c15 -11 72 -65 127 -120z
m-403 -438 l87 -88 -118 -112 -118 -112 -119 120 -119 121 114 109 113 109 37
-29 c20 -16 75 -69 123 -118z m-418 -360 l117 -116 -23 -22 c-13 -12 -77 -74
-144 -138 l-121 -117 -47 41 c-25 23 -76 75 -112 116 l-65 74 33 42 c48 60
222 237 234 237 6 0 63 -53 128 -117z m-331 -570 l197 -198 -75 -75 -75 -75
-330 330 -330 330 72 72 71 72 136 -129 c75 -71 225 -218 334 -327z"/>
<path d="M3140 4219 c-67 -48 -207 -187 -272 -267 -78 -98 -78 -116 3 -216 76
-95 559 -582 699 -705 57 -50 115 -94 127 -97 42 -11 86 19 206 140 145 145
227 243 227 271 0 34 -241 289 -582 615 -238 228 -312 290 -342 290 -13 0 -42
-14 -66 -31z m710 -887 c0 -14 -60 -85 -100 -119 l-35 -30 -327 327 -327 327
72 78 71 78 323 -326 c178 -179 323 -330 323 -335z"/>
<path d="M2128 4047 c-32 -27 -48 -57 -48 -90 0 -48 271 -337 926 -988 455
-452 588 -580 713 -688 66 -56 77 -62 105 -57 40 8 74 42 82 82 5 27 -1 39
-44 91 -84 101 -462 490 -859 884 -570 567 -803 789 -827 789 -12 0 -33 -10
-48 -23z"/>
<path d="M2480 2151 c-82 -27 -171 -97 -207 -163 -27 -49 -25 -178 4 -240 30
-65 99 -137 158 -164 73 -34 182 -34 252 2 61 30 117 89 146 153 31 67 30 180
-2 241 -55 106 -151 171 -261 176 -36 2 -76 0 -90 -5z m143 -229 c28 -24 23
-106 -8 -137 -42 -43 -127 -26 -150 30 -17 38 -5 103 22 123 23 17 110 7 136
-16z"/>
<path d="M3354 1851 c-80 -39 -144 -93 -171 -144 -26 -52 -33 -131 -17 -194
17 -68 45 -112 105 -170 67 -65 98 -77 191 -70 174 12 285 118 296 282 9 143
-69 254 -218 309 -39 14 -79 26 -89 26 -9 0 -53 -17 -97 -39z m155 -196 c33
-16 41 -33 41 -80 0 -41 -17 -82 -38 -90 -23 -9 -112 6 -128 22 -8 9 -14 34
-14 64 0 40 5 55 25 74 28 29 71 33 114 10z"/>
<path d="M1825 1542 c-109 -53 -182 -156 -192 -273 -5 -49 -2 -67 20 -112 32
-64 116 -150 176 -179 94 -45 219 -16 316 73 133 122 133 291 0 421 -62 62
-124 91 -200 96 -50 3 -70 -2 -120 -26z m189 -214 c9 -12 16 -37 16 -56 0 -80
-64 -127 -133 -98 -42 17 -57 41 -57 91 0 56 35 85 104 85 45 0 58 -4 70 -22z"/>
<path d="M2777 1249 c-243 -57 -324 -337 -146 -504 129 -121 284 -124 407 -10
76 70 106 135 106 225 -1 84 -33 149 -109 218 -79 73 -159 94 -258 71z m102
-200 c61 -21 80 -105 36 -157 -30 -36 -70 -45 -111 -26 -59 28 -73 110 -28
163 28 33 51 38 103 20z"/>
</g>
</svg>
