<svg id="Warstwa_1" data-name="Warstwa 1" xmlns="http://www.w3.org/2000/svg" viewBox="0 0 587.85 258.1"><defs><style>.cls-1{fill:#fff;}</style></defs><title>icon_guitar</title><path d="M16.42,138.67c12.21,4.25,65.42,19,72.4,20,7.47,1.17,10.76-.45,17-8.16l2.4-3,69.57.15,69.6.11,1.23,6.29c4.25,21.17,16.59,40.44,33.51,52.35,9.54,6.75,23,12.6,33.44,14.61,6.14,1.19,23.24,1.12,31.85-.12a146.77,146.77,0,0,0,25.5-5.93l7.95-2.49,6.93,6.37c16.73,15.43,22.51,19.82,33.12,25.24,18.21,9.23,35.25,13.25,54.92,13a116,116,0,0,0,64.77-21.29c5.77-4.05,18.17-15.91,22.69-21.73,10.88-13.89,18.87-31.25,21.91-47.35,1.7-9.14,2.27-19.53,2-37.16-.4-29.32-2-39.51-9-57.29-6-15.11-11.65-23.2-27.44-38.8-15.3-15.12-24-20.68-42.51-27C478-3.8,446.81-1.82,419.35,12.11c-12.11,6.15-18.74,11.08-30.94,22.94l-9.49,9.34-7-2.49a123.78,123.78,0,0,0-22.79-6c-11.3-1.61-28.9-1.64-42.38.07-16.7,2.07-34,7-37.77,10.7-1.84,1.86-2.13,2.64-1.53,4.37.81,2.47,1.9,3.08,6.78,3.83,6.55,1,8,1.4,12.07,3.44C299.62,64.86,305,81.15,298.69,96c-1.21,2.81-1.88,3.76-5,7-3.31,3.41-3.88,3.85-6.4,4.69-1.65.57-6.32,1.11-11.49,1.34-4.77.23-45,.4-89.43.4l-80.77-.06-2.9-3.7c-3.79-5-6-6.31-11.65-7.37-6.34-1.12-44-.81-68.54.61-9.33.52-10.51,1-16,6.88-3.1,3.41-3.67,4.26-4.51,6.76-1.79,5.38-.36,11.34,4.23,17.74C10.32,135.84,11.76,137.06,16.42,138.67Zm-3.91-16c-.8-1.72-1-6.23-.32-8.39,1.82-5.68,4.59-6.09,45.82-6.43,20.78-.17,30.26,0,32.74.63s4.1,2.37,4.78,5.32,1.6,20.55,1.3,26.2c-.24,4.64-.81,7.55-1.68,8.43-1.4,1.42-5.27.6-33.06-7-24-6.6-37.56-10.72-43-13.13C16.16,127,13.42,124.67,12.51,122.67Zm94.59,5.5-.28-8.16,8.7,0,8.63,0,.12,8.46.11,8.46h-8.16a58.43,58.43,0,0,1-8.47-.35,61.81,61.81,0,0,1-.65-8.47Zm27.69,0-.18-8.06h17.3l.11,8.46.12,8.46H144c-4.47,0-8.33-.22-8.57-.46s-.49-4-.62-8.38Zm27.72,0-.14-7.95H178l.11,8.46.12,8.47h-7.32c-4,0-7.52-.28-7.76-.52s-.52-4.07-.62-8.44Zm26-4.52v-3.42h17.26l.12,8.47.15,8.49-8.47-.08-8.39-.08-.34-5c-.18-2.71-.33-6.47-.36-8.36Zm27.8,2.75-.05-6.13,8.63,0h8.63l.12,8.46.15,8.5-8.43-.12-8.43,0-.27-2.26c-.18-1.29-.34-5-.38-8.43ZM272,183.67a67.61,67.61,0,0,1-5.22-8.16c-2.88-5.59-7.71-19.51-8.21-23.81l-.45-3.59,12.52-.05c6.84-.05,20.58-.1,30.47-.15l18-.08.26,4.54a41.73,41.73,0,0,0,.8,6.2c.53,1.72.53,1.72,2.84,2.06,6.95.93,24.27.35,25.47-.87,1-1,1.28-13.5.82-37.26-.39-21.57-.77-24.28-3.26-25.46-2.31-1.16-19.17-1.39-23.53-.35-3.17.81-3.79,2.2-3.84,9V109l-7.35-.11c-4,0-7.49-.25-7.69-.46s.05-1.08.55-1.92,1.65-2.84,2.54-4.37c5.93-10.24,6.24-24.42.74-35.4-1.28-2.61-2.35-3.86-8.77-10.47l-7.35-7.53,6.35-1.21c20.67-3.82,39.38-4,55.92-.59,4.65.92,8.66,2.22,20.7,6.5,3,1.09,6,1.8,6.66,1.64,1-.17,3.35-2.17,10-8.32,19.76-18.34,22.67-20.68,31.52-25.1a110.28,110.28,0,0,1,80.44-6.64c8.6,2.56,21.51,8.43,27.55,12.6,4.24,2.92,25.14,23.57,28.21,27.87,3.31,4.68,9,16.2,11.59,23.68a131.44,131.44,0,0,1,6.12,27.22c.68,7.49,1,28.34.62,38.42-.63,15.88-1.82,23.12-5.56,34.25a99.05,99.05,0,0,1-62.53,62.18c-32.22,10.78-69,5.61-95.54-13.32-3.39-2.4-10.13-8.2-23.09-19.87-4.49-4-7.64-6.61-8.14-6.64a90.45,90.45,0,0,0-10.36,3.06c-11,3.61-17.26,5.19-25.64,6.39C339,211.9,326.3,212,320,211,299.74,208,283.3,198.67,272,183.67Zm-27.94-56.53-.06-6.81h8.43l8.43,0,.31,7.85.31,7.85-1.73.24c-.91.1-4.7.3-8.39.46l-6.7.19-.25-1.52C244.25,134.67,244.1,130.86,244.05,127.14ZM272.5,126l-.05-5.93,7.79.22,7.79.21.08,8.09v8.13l-7.55-.18-7.52-.15-.3-2.24c-.11-1.21-.23-4.87-.24-8.15Zm26.36,2-.14-7.89h1.53c.84,0,5.11.11,9.54.22l8.06.15.25,3c.09,1.62.1,5.11,0,7.71l-.25,4.71-2.53.3c-3.65.4-15.53.48-15.94.08C299.14,136.09,298.92,132.37,298.86,128Zm30.39-8-.14-13.37h10.15l.3,22.35.31,22.34h-9.72l-.36-9c-.2-4.93-.44-15-.54-22.36Z" transform="translate(-0.01 0.01)"/><path d="M403.84,160.67c3.9.65,13.34.7,18.25.2,5.94-.67,6.55-1.28,7.11-7.4.56-5.79.25-38.62-.44-47.53-.29-3.62-.81-7.07-1.12-7.58-1.08-1.8-3.59-2.27-11.75-2.25-9.81,0-15.9.51-16.83,1.46-1.14,1.15-1.39,17.94-.57,40.51.55,15.78,1,20.38,2,21.4A7.89,7.89,0,0,0,403.84,160.67Zm5.26-54c.47-.47,4.89-.84,7.4-.63l2.21.17L419,128.3l.3,22.14-5.07.19-5,.23-.2-22c-.17-12.06-.11-22.08.07-22.25Z" transform="translate(-0.01 0.01)"/><path d="M444.3,189.16a5.54,5.54,0,0,0,4.66-1.42c1.6-1.62,2-20.58,1.22-64.78-.52-30.7-.81-39.54-1.49-47.43-.39-4.13-.57-4.7-1.7-5.48a5.16,5.16,0,0,0-5.55,0c-1.07.74-1.27,1.35-1.53,4.57-.49,6.26-.51,32.22,0,59,.62,38.49,1.2,53.89,2,54.71A4.47,4.47,0,0,0,444.3,189.16Z" transform="translate(-0.01 0.01)"/><path d="M495.54,113.14c3.72,1.87,9.11,2.52,12.55,1.51,2.56-.74,6.8-5.16,7.87-8.24a18,18,0,0,0,.06-10.9A15.44,15.44,0,0,0,507.31,87a15.73,15.73,0,0,0-10.12.22,15.2,15.2,0,0,0-8,8.22,14.92,14.92,0,0,0,3.08,14.79A15.47,15.47,0,0,0,495.54,113.14Zm2.74-12.58c-.16-1.76,2.75-4.36,4.85-4.36a4.68,4.68,0,0,1,4.36,5,4.26,4.26,0,0,1-.21,1.12c-.69,1.86-3.27,3.65-4.87,3.41C501.06,105.5,498.41,102.22,498.28,100.56Z" transform="translate(-0.01 0.01)"/><path d="M475.57,73.38c4.05,1.39,8.05,1.73,10.68.93a14.25,14.25,0,0,0,7.06-6c1.69-2.88,2.2-5.31,2.07-9.31-.12-4.47-.79-5.92-4.21-8.84-6.37-5.49-13.72-5.67-19.57-.5-5.09,4.52-6.12,10.92-2.84,17.83a25.24,25.24,0,0,0,2.18,3.9A22.85,22.85,0,0,0,475.57,73.38ZM476.8,61.5c-.6-1.66-.31-2.51,1.26-4.1,1.37-1.38,3.33-2.19,4.31-1.75s3.65,4,3.66,5.08a5.2,5.2,0,0,1-1.66,2.64c-1.33,1.35-2,1.69-3.33,1.65C479.12,65.05,477.51,63.73,476.8,61.5Z" transform="translate(-0.01 0.01)"/><path d="M538.35,114.77a16,16,0,0,0,15.7-2.72,7.69,7.69,0,0,0,3.06-4.46,23,23,0,0,0-.06-12c-1.72-4.71-7-8-13.28-8.24-8.64-.39-14.28,5.32-14.06,14.22a14.33,14.33,0,0,0,3.66,10A9.51,9.51,0,0,0,538.35,114.77Zm.66-13.64a5.21,5.21,0,0,1,1.32-2.44c2.68-2.7,6.44-2.12,7.84,1.2.87,2,.59,3.32-1.08,5q-2.8,2.83-6.41-.65c-1.54-1.52-1.86-2.1-1.67-3.11Z" transform="translate(-0.01 0.01)"/><path d="M515.47,72.59c10.24,6.31,22.37-.4,21.84-12.08-.38-8.46-5.6-13.82-13.63-14.14-4.94-.21-8.14,1-11.15,4-2.77,2.88-3.84,6.16-3.54,11.07C509.26,66.59,511.31,70,515.47,72.59Zm3.18-10.22c-1.39-2.77.76-6.26,4-6.52a4.28,4.28,0,0,1,4.68,2.88A5,5,0,0,1,524,65a4.72,4.72,0,0,1-1.18.21C520.79,65.36,519.83,64.75,518.65,62.37Z" transform="translate(-0.01 0.01)"/><rect class="cls-1" x="575.03" y="120.13" width="12.82" height="8.22"/><rect class="cls-1" x="476.15" y="0.01" width="8.22" height="12.82"/><rect class="cls-1" x="477.8" y="245.28" width="8.22" height="12.82"/><rect class="cls-1" y="113.45" width="12.82" height="8.22"/></svg>
